<?xml version="1.0" encoding="iso-8859-1"?>
<!-- Generator: Adobe Illustrator 19.0.0, SVG Export Plug-In . SVG Version: 6.00 Build 0)  -->
<svg version="1.1" id="Layer_1" xmlns="http://www.w3.org/2000/svg" xmlns:xlink="http://www.w3.org/1999/xlink" x="0px" y="0px"
	 viewBox="0 0 512 512" style="enable-background:new 0 0 512 512;" xml:space="preserve">
<circle style="fill:#662E57;" cx="256" cy="256" r="256"/>
<path style="fill:#590F38;" d="M188.693,243.359l218.918,218.918C470.915,415.672,512,340.639,512,256
	c0-0.943-0.026-1.88-0.036-2.82L334.789,90.432L188.693,243.359z"/>
<path style="fill:#FFC000;" d="M257.994,495.806h-3.989c-62.245,0-112.704-50.459-112.704-112.704V172.871
	c0-62.245,50.459-112.704,112.704-112.704h3.989c62.245,0,112.704,50.459,112.704,112.704v210.231
	C370.699,445.347,320.239,495.806,257.994,495.806z"/>
<path style="fill:#CE9800;" d="M256,60.167L256,60.167c-0.112,0-0.222,0.004-0.333,0.004v435.631c0.111,0,0.222,0.004,0.333,0.004
	l0,0c63.346,0,114.699-49.582,114.699-110.745v-214.15C370.699,109.749,319.346,60.167,256,60.167z"/>
<circle style="fill:#EFD48F;" cx="155.86" cy="243.98" r="28.808"/>
<circle style="fill:#E7C46B;" cx="356.14" cy="243.98" r="28.808"/>
<path style="fill:#FFF0CC;" d="M460.799,409.616l-8.525-17.542l-152.978-37.523v-30.788h-86.591v30.788L59.726,392.075
	l-8.525,17.542C97.907,471.784,172.255,512,256,512S414.093,471.785,460.799,409.616z"/>
<path style="fill:#DBC69C;" d="M452.274,392.075l-152.978-37.523v-30.788h-43.629v188.234c0.111,0,0.222,0.002,0.333,0.002
	c83.745,0,158.093-40.215,204.799-102.384L452.274,392.075z"/>
<path style="fill:#FFECB3;" d="M257.741,342.181h-3.482c-54.346,0-98.402-44.056-98.402-98.402V168.39
	c0-54.346,44.056-98.402,98.402-98.402h3.482c54.346,0,98.402,44.056,98.402,98.402v75.389
	C356.143,298.125,312.087,342.181,257.741,342.181z"/>
<path style="fill:#E8D3A0;" d="M256,72.988L256,72.988c-0.112,0-0.222,0.004-0.333,0.004V342.18h2.074
	c54.346,0,98.402-44.056,98.402-98.402V169.68C356.143,116.278,311.308,72.988,256,72.988z"/>
<circle style="fill:#1A1A1A;" cx="313.02" cy="229.85" r="10.803"/>
<circle style="fill:#333333;" cx="198.98" cy="229.85" r="10.803"/>
<path style="fill:#E7AF5B;" d="M256.354,257.642h-0.708c-6.156,0-11.146-4.99-11.146-11.146v-6.068h23v6.068
	C267.5,252.651,262.51,257.642,256.354,257.642z"/>
<path style="fill:#D39746;" d="M255.667,240.428v17.214h0.687c6.156,0,11.146-4.99,11.146-11.146v-6.068L255.667,240.428
	L255.667,240.428z"/>
<path style="fill:#F1333F;" d="M452.274,392.075l-82.565-20.252c-15.005,48.543-60.237,83.811-113.709,83.811
	s-98.703-35.268-113.709-83.811l-82.565,20.252l-8.525,17.542C97.907,471.784,172.255,512,256,512s158.093-40.215,204.799-102.384
	L452.274,392.075z"/>
<path style="fill:#AE283F;" d="M452.274,392.075l-82.565-20.252c-15.005,48.543-60.237,83.811-113.709,83.811
	c-0.112,0-0.222-0.007-0.333-0.007v56.371c0.111,0,0.222,0.002,0.333,0.002c83.745,0,158.093-40.215,204.799-102.384
	L452.274,392.075z"/>
<path style="fill:#FFC000;" d="M256,67.609c-27.73,0-52.883,10.636-71.335,27.909V84.221
	c-26.416,20.286-43.364,51.569-43.364,86.691v239.959c0,35.122,16.948,66.405,43.364,86.691V212.67h102.124v-54.024l22.058,54.024
	h32.618l7.165,61.883h9.87V166.576C358.5,111.918,312.609,67.609,256,67.609z"/>
<path style="fill:#CE9800;" d="M256,66.54c-0.114,0-0.227,1.073-0.341,1.074V212.67h31.13v-54.024l22.058,54.024h32.618
	l7.165,61.883h9.87V165.507C358.5,110.849,312.609,66.54,256,66.54z"/>
<path style="fill:#F1333F;" d="M255.667,303c-16.818,0-30.5-13.682-30.5-30.5h12c0,10.201,8.299,18.5,18.5,18.5
	s18.5-8.299,18.5-18.5h12C286.167,289.318,272.485,303,255.667,303z"/>
<path style="fill:#AE283F;" d="M255.667,291c10.201,0,18.5-8.299,18.5-18.5h12c0,16.818-13.682,30.5-30.5,30.5L255.667,291
	L255.667,291z"/>
<g>
</g>
<g>
</g>
<g>
</g>
<g>
</g>
<g>
</g>
<g>
</g>
<g>
</g>
<g>
</g>
<g>
</g>
<g>
</g>
<g>
</g>
<g>
</g>
<g>
</g>
<g>
</g>
<g>
</g>
</svg>
